<!DOCTYPE svg PUBLIC "-//W3C//DTD SVG 1.1//EN" "http://www.w3.org/Graphics/SVG/1.1/DTD/svg11.dtd">
<!-- Uploaded to: SVG Repo, www.svgrepo.com, Transformed by: SVG Repo Mixer Tools -->
<svg width="800px" height="800px" viewBox="-2.4 -2.4 28.80 28.80" fill="none" xmlns="http://www.w3.org/2000/svg" stroke="#000000" transform="matrix(1, 0, 0, 1, 0, 0)rotate(0)">
<g id="SVGRepo_bgCarrier" stroke-width="0">
<path transform="translate(-2.4, -2.4), scale(0.8999999999999999)" d="M16,27.17105454814277C17.490801122823058,26.779161982836197,18.422043645794773,25.12528775912265,19.93761739869772,24.844033479040142C22.045964295803856,24.452774665291244,24.272646949653172,25.99842197552961,26.286610223428266,25.262105447290317C28.307891825467458,24.523113296247917,31.20372410729837,22.96837949543562,30.89249850686175,20.83886609099853C30.48368072407613,18.041593157175342,25.175029600093733,17.877022291474553,24.797823600685565,15.075311478447626C24.43681621176288,12.393916413909336,29.535089918112547,11.057410465783976,29.213891826375317,8.37095599699962C28.962851408886472,6.271290187153749,25.476916645507124,6.535415868679718,23.649548031338625,5.471300389889663C21.996204568168185,4.508523445339496,20.659091893508364,3.1126981409133285,18.898413928976467,2.364034560005594C16.943428639883816,1.5327489321746284,14.899620341775957,0.7130166973408447,12.779610604134811,0.8492590839674872C10.582066686745193,0.9904842032233788,7.724492527073424,1.2203058113681717,6.664125328881072,3.150270890887139C5.396606317533838,5.457271176917121,8.182226893802609,8.483704569937057,7.235597113545062,10.939869634218901C6.490850675092494,12.872219769430004,3.032741149976877,12.63219129614459,2.267974875286251,14.556706000617895C1.567281922729674,16.319981834220076,3.1426902184629126,18.185670029605127,3.627264772535055,20.020145371678087C4.135799835227986,21.945329071998472,3.785084435473517,24.325044521374238,5.214459712792872,25.711344094538575C6.663362238837578,27.11658244256671,9.018314999232622,26.91793235445781,11.018498170823026,27.188636297602578C12.682185051062124,27.41379897521917,14.376309140683468,27.59788034427407,16,27.17105454814277" fill="#000" strokewidth="0"/>
</g>
<g id="SVGRepo_tracerCarrier" stroke-linecap="round" stroke-linejoin="round"/>
<g id="SVGRepo_iconCarrier"> <path d="M12 2C6.49 2 2 6.49 2 12C2 17.51 6.49 22 12 22C17.51 22 22 17.51 22 12C22 6.49 17.51 2 12 2ZM16.78 9.7L11.11 15.37C10.97 15.51 10.78 15.59 10.58 15.59C10.38 15.59 10.19 15.51 10.05 15.37L7.22 12.54C6.93 12.25 6.93 11.77 7.22 11.48C7.51 11.19 7.99 11.19 8.28 11.48L10.58 13.78L15.72 8.64C16.01 8.35 16.49 8.35 16.78 8.64C17.07 8.93 17.07 9.4 16.78 9.7Z" fill="#1E90FF"/> </g>
</svg>